<svg xmlns="http://www.w3.org/2000/svg" xmlns:xlink="http://www.w3.org/1999/xlink" width="1024" zoomAndPan="magnify" viewBox="0 0 768 767.999994" height="1024" preserveAspectRatio="xMidYMid meet" version="1.0"><defs><clipPath id="e4f73e9cc5"><path d="M 77.117188 350 L 391.800781 350 L 391.800781 677 L 77.117188 677 Z M 77.117188 350 " clip-rule="nonzero"/></clipPath><clipPath id="dc29dfe032"><path d="M 268.226562 22 L 582.910156 22 L 582.910156 349.628906 L 268.226562 349.628906 Z M 268.226562 22 " clip-rule="nonzero"/></clipPath><clipPath id="18127b6537"><path d="M 384.316406 350 L 699 350 L 699 677 L 384.316406 677 Z M 384.316406 350 " clip-rule="nonzero"/></clipPath></defs><path fill="#fffffb" d="M 677.515625 345.355469 C 673.46875 390.183594 674.28125 431.429688 666.253906 472.957031 C 647.226562 571.570312 549.402344 663.042969 451.929688 678.023438 C 365.851562 691.214844 284.429688 680.140625 208.753906 634.21875 C 153.710938 600.859375 120.910156 551.75 107.652344 490.730469 C 86.457031 392.695312 86.457031 294.222656 131.03125 202.421875 C 158.574219 145.636719 210.101562 112.976562 271.914062 99.203125 C 371.925781 76.800781 469.515625 95.039062 564.894531 123.328125 C 628.941406 142.308594 666.347656 190.09375 674.234375 257.324219 C 677.632812 287.519531 681.632812 318.183594 677.515625 345.355469 Z M 677.515625 345.355469 " fill-opacity="1" fill-rule="nonzero"/><g clip-path="url(#e4f73e9cc5)"><path fill="#3751a2" d="M 76.785156 676.964844 L 233.460938 676.964844 L 233.460938 522.78125 L 391.8125 522.78125 L 391.8125 350.269531 L 76.785156 350.269531 Z M 76.785156 676.964844 " fill-opacity="1" fill-rule="nonzero"/></g><g clip-path="url(#dc29dfe032)"><path fill="#3751a2" d="M 267.894531 349.121094 L 424.570312 349.121094 L 424.570312 194.941406 L 582.921875 194.941406 L 582.921875 22.425781 L 267.894531 22.425781 Z M 267.894531 349.121094 " fill-opacity="1" fill-rule="nonzero"/></g><g clip-path="url(#18127b6537)"><path fill="#3751a2" d="M 383.984375 676.964844 L 540.660156 676.964844 L 540.660156 522.78125 L 699.011719 522.78125 L 699.011719 350.269531 L 383.984375 350.269531 Z M 383.984375 676.964844 " fill-opacity="1" fill-rule="nonzero"/></g></svg>